    <svg xmlns="http://www.w3.org/2000/svg" width="180" height="180" viewBox="0 0 180 180" fill="none">
  <path d="M90 15C48.5786 15 15 48.5786 15 90C15 131.421 48.5786 165 90 165C131.421 165 165 131.421 165 90C165 48.5786 131.421 15 90 15Z" stroke="#21272A" stroke-width="1.5" stroke-linecap="round" stroke-linejoin="round"/>
  <path d="M32.0325 137.593C32.0325 137.593 48.7501 116.25 90 116.25C131.25 116.25 147.968 137.593 147.968 137.593" stroke="#21272A" stroke-width="1.5" stroke-linecap="round" stroke-linejoin="round"/>
  <path d="M90 90C102.427 90 112.5 79.9268 112.5 67.5C112.5 55.0736 102.427 45 90 45C77.5732 45 67.5 55.0736 67.5 67.5C67.5 79.9268 77.5732 90 90 90Z" stroke="#21272A" stroke-width="1.5" stroke-linecap="round" stroke-linejoin="round"/>
</svg>