<svg width="48" height="49" viewBox="0 0 48 49" fill="none" xmlns="http://www.w3.org/2000/svg">
<path d="M34 22.663C33.674 22.8463 33.4027 23.113 33.2139 23.4359C33.0252 23.7587 32.9258 24.126 32.926 24.5C32.926 25.289 33.359 25.976 34 26.337L33.283 28.743C32.8954 28.6763 32.497 28.7196 32.1327 28.8678C31.7685 29.016 31.453 29.2633 31.2222 29.5816C30.9913 29.8999 30.8542 30.2766 30.8264 30.6688C30.7986 31.0611 30.8813 31.4533 31.065 31.801L29.003 33.403C28.73 33.1792 28.4051 33.0277 28.0582 32.9624C27.7113 32.8971 27.3535 32.9202 27.0179 33.0295C26.6822 33.1387 26.3794 33.3307 26.1374 33.5877C25.8954 33.8447 25.7219 34.1584 25.633 34.5L22.343 34.492C22.2531 34.152 22.0794 33.84 21.8378 33.5845C21.5962 33.329 21.2944 33.1381 20.96 33.0292C20.6256 32.9204 20.2692 32.8972 19.9235 32.9616C19.5778 33.026 19.2538 33.176 18.981 33.398L16.921 31.783C17.0996 31.4367 17.1786 31.0477 17.1491 30.6592C17.1197 30.2708 16.9831 29.8981 16.7544 29.5826C16.5258 29.2672 16.214 29.0214 15.854 28.8727C15.4939 28.7239 15.0996 28.678 14.715 28.74L14 26.325C14.3199 26.1398 14.5855 25.8737 14.77 25.5533C14.9545 25.233 15.0514 24.8697 15.051 24.5C15.051 23.72 14.63 23.04 14 22.675L14.715 20.26C15.0997 20.3222 15.4941 20.2765 15.8543 20.1278C16.2146 19.9791 16.5265 19.7334 16.7552 19.4179C16.984 19.1024 17.1208 18.7296 17.1502 18.3411C17.1797 17.9525 17.1007 17.5633 16.922 17.217L18.98 15.602C19.2528 15.824 19.5768 15.974 19.9225 16.0384C20.2682 16.1028 20.6246 16.0796 20.959 15.9708C21.2934 15.8619 21.5952 15.671 21.8368 15.4155C22.0784 15.16 22.2521 14.848 22.342 14.508L25.634 14.5C25.7229 14.8416 25.8964 15.1553 26.1384 15.4123C26.3804 15.6693 26.6832 15.8613 27.0189 15.9705C27.3545 16.0798 27.7123 16.1029 28.0592 16.0376C28.4061 15.9723 28.731 15.8208 29.004 15.597L31.064 17.2C30.8803 17.5477 30.7976 17.9399 30.8254 18.3322C30.8532 18.7244 30.9903 19.1011 31.2212 19.4194C31.452 19.7377 31.7675 19.985 32.1317 20.1332C32.496 20.2814 32.8944 20.3247 33.282 20.258L34 22.662V22.663ZM28.823 18.18C28.823 18.117 28.825 18.055 28.828 17.992L28.748 17.93C27.9691 18.1422 27.1449 18.1199 26.3786 17.8659C25.6123 17.6119 24.9379 17.1374 24.44 16.502L23.536 16.504C23.0399 17.1367 22.3687 17.6097 21.606 17.8639C20.8432 18.1182 20.0225 18.1425 19.246 17.934L19.151 18.01C19.1887 18.9127 18.9277 19.8026 18.4085 20.542C17.8893 21.2814 17.1408 21.829 16.279 22.1C16.7818 22.7988 17.0519 23.6381 17.051 24.499C17.051 25.381 16.771 26.214 16.279 26.899C17.1408 27.17 17.8893 27.7176 18.4085 28.457C18.9277 29.1964 19.1887 30.0863 19.151 30.989L19.247 31.064C20.0234 30.8562 20.8437 30.8809 21.6062 31.1351C22.3686 31.3894 23.0397 31.8619 23.536 32.494L24.44 32.496C24.9376 31.8604 25.6118 31.3859 26.3779 31.1319C27.1441 30.8778 27.9682 30.8556 28.747 31.068L28.827 31.006C28.7858 30.1005 29.0452 29.2068 29.5649 28.4642C30.0845 27.7215 30.8352 27.1716 31.7 26.9C31.1968 26.201 30.9263 25.3613 30.927 24.5C30.927 23.618 31.208 22.784 31.7 22.1C30.866 21.8378 30.1374 21.3164 29.6201 20.6115C29.1029 19.9067 28.824 19.0553 28.824 18.181L28.823 18.18ZM24 28.5C22.9391 28.5 21.9217 28.0786 21.1716 27.3284C20.4214 26.5783 20 25.5609 20 24.5C20 23.4391 20.4214 22.4217 21.1716 21.6716C21.9217 20.9214 22.9391 20.5 24 20.5C25.0609 20.5 26.0783 20.9214 26.8284 21.6716C27.5786 22.4217 28 23.4391 28 24.5C28 25.5609 27.5786 26.5783 26.8284 27.3284C26.0783 28.0786 25.0609 28.5 24 28.5ZM24 26.5C24.5304 26.5 25.0391 26.2893 25.4142 25.9142C25.7893 25.5391 26 25.0304 26 24.5C26 23.9696 25.7893 23.4609 25.4142 23.0858C25.0391 22.7107 24.5304 22.5 24 22.5C23.4696 22.5 22.9609 22.7107 22.5858 23.0858C22.2107 23.4609 22 23.9696 22 24.5C22 25.0304 22.2107 25.5391 22.5858 25.9142C22.9609 26.2893 23.4696 26.5 24 26.5Z" fill="#001D6C"/>
</svg>
