<svg width="60" height="61" viewBox="0 0 60 61" fill="none" xmlns="http://www.w3.org/2000/svg">
<rect y="0.727051" width="60" height="60" rx="30" fill="#F2F4F8"/>
<path d="M26.534 30.7971C26.6569 30.7446 26.7892 30.7173 26.9228 30.7168C27.0565 30.7163 27.1889 30.7427 27.3122 30.7942C27.4355 30.8458 27.5473 30.9216 27.6408 31.0171C27.7344 31.1125 27.8078 31.2258 27.8568 31.3502C27.9058 31.4745 27.9294 31.6075 27.9262 31.7411C27.9229 31.8747 27.8929 32.0064 27.8379 32.1282C27.7829 32.25 27.7041 32.3596 27.606 32.4504C27.508 32.5413 27.3927 32.6115 27.267 32.6571C26.5985 32.9204 26.0248 33.3789 25.6205 33.9728C25.2162 34.5667 25 35.2686 25 35.9871V37.7271C25 37.9923 25.1054 38.2466 25.2929 38.4342C25.4804 38.6217 25.7348 38.7271 26 38.7271H34C34.2652 38.7271 34.5196 38.6217 34.7071 38.4342C34.8946 38.2466 35 37.9923 35 37.7271V36.0801C35.0001 35.3385 34.7749 34.6145 34.3541 34.0039C33.9334 33.3933 33.337 32.925 32.644 32.6611C32.5175 32.6172 32.4012 32.5483 32.3018 32.4586C32.2024 32.369 32.1221 32.2602 32.0655 32.1389C32.009 32.0176 31.9773 31.8862 31.9725 31.7524C31.9677 31.6186 31.9897 31.4852 32.0374 31.3602C32.0851 31.2351 32.1574 31.1208 32.25 31.0242C32.3427 30.9276 32.4538 30.8506 32.5767 30.7977C32.6997 30.7448 32.832 30.7171 32.9659 30.7163C33.0998 30.7155 33.2324 30.7416 33.356 30.7931C34.4276 31.2012 35.3499 31.9254 36.0006 32.8696C36.6514 33.8137 36.9999 34.9333 37 36.0801V37.7271C37 38.5227 36.6839 39.2858 36.1213 39.8484C35.5587 40.411 34.7956 40.7271 34 40.7271H26C25.2044 40.7271 24.4413 40.411 23.8787 39.8484C23.3161 39.2858 23 38.5227 23 37.7271V35.9871C23.0001 34.8672 23.3373 33.7733 23.9676 32.8477C24.5978 31.9221 25.4921 31.2075 26.534 30.7971ZM30 20.7271C31.0609 20.7271 32.0783 21.1485 32.8284 21.8986C33.5786 22.6488 34 23.6662 34 24.7271V26.7271C34 27.7879 33.5786 28.8053 32.8284 29.5555C32.0783 30.3056 31.0609 30.7271 30 30.7271C28.9391 30.7271 27.9217 30.3056 27.1716 29.5555C26.4214 28.8053 26 27.7879 26 26.7271V24.7271C26 23.6662 26.4214 22.6488 27.1716 21.8986C27.9217 21.1485 28.9391 20.7271 30 20.7271V20.7271ZM30 22.7271C29.4696 22.7271 28.9609 22.9378 28.5858 23.3128C28.2107 23.6879 28 24.1966 28 24.7271V26.7271C28 27.2575 28.2107 27.7662 28.5858 28.1413C28.9609 28.5163 29.4696 28.7271 30 28.7271C30.5304 28.7271 31.0391 28.5163 31.4142 28.1413C31.7893 27.7662 32 27.2575 32 26.7271V24.7271C32 24.1966 31.7893 23.6879 31.4142 23.3128C31.0391 22.9378 30.5304 22.7271 30 22.7271Z" fill="#C1C7CD"/>
</svg>
