<svg width="40" height="41" viewBox="0 0 40 41" fill="none" xmlns="http://www.w3.org/2000/svg">
<path d="M20 3.83325C10.7952 3.83325 3.33331 11.2952 3.33331 20.4999C3.33331 29.7046 10.7952 37.1666 20 37.1666C29.2046 37.1666 36.6666 29.7046 36.6666 20.4999C36.6666 11.2952 29.2046 3.83325 20 3.83325Z" stroke="#21272A" stroke-width="1.5" stroke-linecap="round" stroke-linejoin="round"/>
<path d="M7.11835 31.0761C7.11835 31.0761 10.8334 26.3333 20 26.3333C29.1667 26.3333 32.8818 31.0761 32.8818 31.0761" stroke="#21272A" stroke-width="1.5" stroke-linecap="round" stroke-linejoin="round"/>
<path d="M20 20.5C22.7615 20.5 25 18.2615 25 15.5C25 12.7386 22.7615 10.5 20 10.5C17.2385 10.5 15 12.7386 15 15.5C15 18.2615 17.2385 20.5 20 20.5Z" stroke="#21272A" stroke-width="1.5" stroke-linecap="round" stroke-linejoin="round"/>
</svg>
