<svg width="38" height="38" viewBox="0 0 38 38" fill="none" xmlns="http://www.w3.org/2000/svg">
<path d="M1.04167 37.173H36.25C36.5263 37.173 36.7912 37.0633 36.9866 36.8679C37.1819 36.6726 37.2917 36.4076 37.2917 36.1314C37.2917 35.8551 37.1819 35.5901 36.9866 35.3948C36.7912 35.1994 36.5263 35.0897 36.25 35.0897H1.04167C0.765399 35.0897 0.500447 35.1994 0.305097 35.3948C0.109746 35.5901 0 35.8551 0 36.1314C0 36.4076 0.109746 36.6726 0.305097 36.8679C0.500447 37.0633 0.765399 37.173 1.04167 37.173ZM13.8792 29.3439C14.7592 29.0976 15.5621 28.6316 16.2125 27.9897L36.0875 8.11469C36.7681 7.43138 37.1503 6.50622 37.1503 5.54177C37.1503 4.57732 36.7681 3.65216 36.0875 2.96885L34.1292 1.03135C33.4361 0.369386 32.5146 0 31.5562 0C30.5979 0 29.6764 0.369386 28.9833 1.03135L9.10833 20.8855C8.46529 21.5316 8.00519 22.3368 7.775 23.2189L6.23333 28.9689C6.16019 29.2315 6.15831 29.5089 6.22787 29.7725C6.29744 30.0361 6.43595 30.2765 6.62917 30.4689C6.92405 30.7587 7.31984 30.923 7.73333 30.9272L13.8792 29.3439ZM14.7333 26.5105C14.3493 26.9015 13.8672 27.1822 13.3375 27.323L11.3167 27.8647L9.23333 25.7814L9.775 23.7605C9.92072 23.2329 10.2006 22.752 10.5875 22.3647L11.3792 21.5939L15.525 25.7397L14.7333 26.5105ZM17.0042 24.2605L12.8583 20.1147L26.8792 6.09385L31.025 10.2397L17.0042 24.2605ZM34.6083 6.65635L32.5042 8.76052L28.3583 4.61469L30.4625 2.48969C30.6073 2.34431 30.7794 2.22895 30.9688 2.15023C31.1583 2.07152 31.3615 2.031 31.5667 2.031C31.7718 2.031 31.975 2.07152 32.1645 2.15023C32.354 2.22895 32.526 2.34431 32.6708 2.48969L34.6083 4.44802C34.8989 4.74206 35.0619 5.13879 35.0619 5.55219C35.0619 5.96558 34.8989 6.36232 34.6083 6.65635Z" fill="black"/>
</svg>
